<?xml version="1.0" encoding="UTF-8" standalone="no"?>
<!-- Generator: Adobe Illustrator 18.0.0, SVG Export Plug-In . SVG Version: 6.00 Build 0)  -->

<svg
   xmlns:dc="http://purl.org/dc/elements/1.1/"
   xmlns:cc="http://creativecommons.org/ns#"
   xmlns:rdf="http://www.w3.org/1999/02/22-rdf-syntax-ns#"
   xmlns:svg="http://www.w3.org/2000/svg"
   xmlns="http://www.w3.org/2000/svg"
   xmlns:sodipodi="http://sodipodi.sourceforge.net/DTD/sodipodi-0.dtd"
   xmlns:inkscape="http://www.inkscape.org/namespaces/inkscape"
   version="1.1"
   id="Capa_1"
   x="0px"
   y="0px"
   viewBox="0 0 490.721 490.721"
   style="enable-background:new 0 0 490.721 490.721;"
   xml:space="preserve"
   inkscape:version="0.48.5 r10040"
   width="100%"
   height="100%"
   sodipodi:docname="71506.svg"><metadata
     id="metadata51"><rdf:RDF><cc:Work
         rdf:about=""><dc:format>image/svg+xml</dc:format><dc:type
           rdf:resource="http://purl.org/dc/dcmitype/StillImage" /><dc:title></dc:title></cc:Work></rdf:RDF></metadata><defs
     id="defs49" /><sodipodi:namedview
     pagecolor="#ffffff"
     bordercolor="#666666"
     borderopacity="1"
     objecttolerance="10"
     gridtolerance="10"
     guidetolerance="10"
     inkscape:pageopacity="0"
     inkscape:pageshadow="2"
     inkscape:window-width="1366"
     inkscape:window-height="718"
     id="namedview47"
     showgrid="false"
     inkscape:zoom="1.0005685"
     inkscape:cx="245.3599"
     inkscape:cy="245.3605"
     inkscape:window-x="0"
     inkscape:window-y="0"
     inkscape:window-maximized="1"
     inkscape:current-layer="Capa_1" /><g
     id="g3"
     style="fill:#4d4d4d"><path
       d="M250.847,2.938c-1.223-1.834-3.281-2.93-5.504-2.938c-2.188,0-4.266,1.104-5.504,2.938   c-12.066,17.934-39.813,62.229-39.813,90.543c0,36.182,20.309,65.518,45.316,65.518c25.039,0,45.316-29.336,45.316-65.518   C290.66,65.166,262.933,20.881,250.847,2.938z"
       id="path5"
       style="fill:#4d4d4d" /><path
       d="M368.933,231.92c20.016-20.02,31.715-70.949,35.852-92.168c0.434-2.172-0.258-4.402-1.801-5.969   c-1.578-1.563-3.801-2.246-5.973-1.82c-21.227,4.145-72.141,15.852-92.176,35.879c-25.586,25.578-31.973,60.676-14.273,78.367   C308.25,263.904,343.344,257.506,368.933,231.92z"
       id="path7"
       style="fill:#4d4d4d" /><path
       d="M433.332,284.572c-1.543-1.551-3.766-2.234-5.922-1.824c-24.719,4.707-91.098,19.352-116.715,44.969   c-31.75,31.734-39.684,75.277-17.719,97.238c21.949,21.949,65.496,14.016,97.23-17.734c25.617-25.613,40.262-92.008,44.961-116.711   C435.586,288.353,434.894,286.127,433.332,284.572z"
       id="path9"
       style="fill:#4d4d4d" /><path
       d="M93.691,131.963c-2.156-0.426-4.395,0.258-5.953,1.82c-1.563,1.566-2.254,3.797-1.82,5.969   c4.137,21.219,15.852,72.148,35.871,92.168c25.586,25.586,60.668,31.984,78.367,14.289c17.703-17.691,11.297-52.789-14.289-78.367   C165.847,147.814,114.933,136.107,93.691,131.963z"
       id="path11"
       style="fill:#4d4d4d" /><path
       d="M63.308,282.748c-2.156-0.41-4.375,0.273-5.938,1.824c-1.559,1.555-2.234,3.781-1.816,5.938   c4.699,24.703,19.34,91.098,44.961,116.711c31.734,31.75,75.277,39.684,97.227,17.734c21.953-21.961,14.035-65.504-17.73-97.238   C154.406,302.1,88.011,287.455,63.308,282.748z"
       id="path13"
       style="fill:#4d4d4d" /><path
       d="M245.344,176.748c-9.09,0-16.477,7.379-16.477,16.48v281.016c0,9.102,7.387,16.477,16.477,16.477   c9.109,0,16.48-7.375,16.48-16.477V193.229C261.824,184.127,254.453,176.748,245.344,176.748z"
       id="path15"
       style="fill:#4d4d4d" /></g><g
     id="g17" /><g
     id="g19" /><g
     id="g21" /><g
     id="g23" /><g
     id="g25" /><g
     id="g27" /><g
     id="g29" /><g
     id="g31" /><g
     id="g33" /><g
     id="g35" /><g
     id="g37" /><g
     id="g39" /><g
     id="g41" /><g
     id="g43" /><g
     id="g45" /></svg>