<?xml version="1.0" encoding="UTF-8" standalone="no"?>
<!-- Generator: Adobe Illustrator 16.0.0, SVG Export Plug-In . SVG Version: 6.00 Build 0)  -->

<svg
   xmlns:dc="http://purl.org/dc/elements/1.1/"
   xmlns:cc="http://creativecommons.org/ns#"
   xmlns:rdf="http://www.w3.org/1999/02/22-rdf-syntax-ns#"
   xmlns:svg="http://www.w3.org/2000/svg"
   xmlns="http://www.w3.org/2000/svg"
   xmlns:sodipodi="http://sodipodi.sourceforge.net/DTD/sodipodi-0.dtd"
   xmlns:inkscape="http://www.inkscape.org/namespaces/inkscape"
   version="1.1"
   id="Capa_1"
   x="0px"
   y="0px"
   width="800px"
   height="800px"
   viewBox="0 0 800 800"
   style="enable-background:new 0 0 800 800;"
   xml:space="preserve"
   sodipodi:docname="candidati.svg"
   inkscape:version="0.92.1 r15371"><metadata
     id="metadata41"><rdf:RDF><cc:Work
         rdf:about=""><dc:format>image/svg+xml</dc:format><dc:type
           rdf:resource="http://purl.org/dc/dcmitype/StillImage" /><dc:title /></cc:Work></rdf:RDF></metadata><defs
     id="defs39" /><sodipodi:namedview
     pagecolor="#ffffff"
     bordercolor="#666666"
     borderopacity="1"
     objecttolerance="10"
     gridtolerance="10"
     guidetolerance="10"
     inkscape:pageopacity="0"
     inkscape:pageshadow="2"
     inkscape:window-width="1920"
     inkscape:window-height="1028"
     id="namedview37"
     showgrid="false"
     inkscape:zoom="0.295"
     inkscape:cx="400"
     inkscape:cy="400"
     inkscape:window-x="-8"
     inkscape:window-y="-8"
     inkscape:window-maximized="1"
     inkscape:current-layer="Capa_1" /><g
     id="g4"
     style="fill:#000000"><path
       d="M766.195,718.588L538.245,528.48c5.299-14.279,4.523-30.207-2.11-44.055c-2.629-5.513-6.031-10.764-10.556-15.364   c-3.447-3.473-7.368-6.163-11.374-8.595c41.144-48.785,66.089-111.807,66.089-180.731C580.294,125.479,455.741,0,302.669,0   C149.595,0,25,125.479,25,279.736c0,154.299,124.595,279.779,277.669,279.779c47.304,0,91.809-12.022,130.842-33.205   c2.672,8.117,6.938,15.757,13.313,22.181c1.724,1.735,3.619,3.082,5.472,4.514c16.155,12.543,37.396,15.148,55.577,7.379   L691.62,793.721c0,0,33.044,20.574,66.134-12.762C790.797,747.625,766.195,718.588,766.195,718.588z M302.669,501.962   c-117.487,0-213.088-96.354-213.088-214.718v-7.508c0-118.363,95.601-214.718,213.088-214.718   c117.528,0,213.044,96.355,213.044,214.718l0.043,7.508C515.756,405.607,420.197,501.962,302.669,501.962z M387.649,184.465   c0,46.767-38.021,84.638-84.959,84.638c-46.917,0-84.959-37.871-84.959-84.638c0-46.789,38.042-84.68,84.959-84.68   C349.628,99.785,387.649,137.676,387.649,184.465z M416.559,450.094c-0.174-1.821,0.043-3.754-0.432-5.468   c-6.097-21.962-23.286-51.954-40.886-72.57c1.981,23.872,4.869,60.44,7.217,96.571c-15.661,6.642-32.355,11.155-49.697,13.717   l-19.56-204.583c14.174,0.956,28.349,3.516,41.833,8.074c19.129,6.424,38.474,19.27,52.863,33.204   c22.272,21.419,44.072,54.385,57.32,85.115C451.541,421.969,435.191,437.574,416.559,450.094z M294.763,277.76l-24.45,204.236   c-15.618-2.495-30.697-6.619-44.936-12.455c1.939-42.147,3.813-79.69,4.912-101.284c-18.741,20.552-37.783,52.996-44.267,76.369   c-0.28,1.041-0.129,2.215-0.28,3.298c-18.332-12.803-34.358-28.602-47.671-46.569c13.377-29.929,34.595-61.569,56.158-82.315   c16.156-15.582,37.094-28.125,58.506-34.615C266.35,280.279,280.545,278.282,294.763,277.76z"
       id="path2"
       style="fill:#000000" /></g><g
     id="g6" /><g
     id="g8" /><g
     id="g10" /><g
     id="g12" /><g
     id="g14" /><g
     id="g16" /><g
     id="g18" /><g
     id="g20" /><g
     id="g22" /><g
     id="g24" /><g
     id="g26" /><g
     id="g28" /><g
     id="g30" /><g
     id="g32" /><g
     id="g34" /></svg>