<?xml version="1.0" encoding="UTF-8" standalone="no"?>
<!-- Generator: Adobe Illustrator 18.0.0, SVG Export Plug-In . SVG Version: 6.00 Build 0)  -->

<svg
   xmlns:dc="http://purl.org/dc/elements/1.1/"
   xmlns:cc="http://creativecommons.org/ns#"
   xmlns:rdf="http://www.w3.org/1999/02/22-rdf-syntax-ns#"
   xmlns:svg="http://www.w3.org/2000/svg"
   xmlns="http://www.w3.org/2000/svg"
   xmlns:sodipodi="http://sodipodi.sourceforge.net/DTD/sodipodi-0.dtd"
   xmlns:inkscape="http://www.inkscape.org/namespaces/inkscape"
   version="1.1"
   id="Capa_1"
   x="0px"
   y="0px"
   viewBox="0 0 448.837 448.837"
   style="enable-background:new 0 0 448.837 448.837;"
   xml:space="preserve"
   sodipodi:docname="scudo DIFESA.svg"
   inkscape:version="0.92.1 r15371"><metadata
     id="metadata43"><rdf:RDF><cc:Work
         rdf:about=""><dc:format>image/svg+xml</dc:format><dc:type
           rdf:resource="http://purl.org/dc/dcmitype/StillImage" /><dc:title></dc:title></cc:Work></rdf:RDF></metadata><defs
     id="defs41" /><sodipodi:namedview
     pagecolor="#ffffff"
     bordercolor="#666666"
     borderopacity="1"
     objecttolerance="10"
     gridtolerance="10"
     guidetolerance="10"
     inkscape:pageopacity="0"
     inkscape:pageshadow="2"
     inkscape:window-width="640"
     inkscape:window-height="480"
     id="namedview39"
     showgrid="false"
     inkscape:zoom="0.52580335"
     inkscape:cx="224.4185"
     inkscape:cy="224.4185"
     inkscape:window-x="0"
     inkscape:window-y="0"
     inkscape:window-maximized="0"
     inkscape:current-layer="Capa_1" /><g
     id="g6"
     style="fill:#4d4d4d"><path
       d="M104.232,112.66l17.435,156.112c1.571,14.068,6.853,27.446,15.28,38.671c48.308,64.358,80.244,79.773,87.637,80.096   c0.286,0,0.688-0.068,1.049-0.112V83.956c-28.749,18.746-64.787,29.565-102.769,29.565   C116.623,113.521,110.397,113.229,104.232,112.66z"
       id="path2"
       style="fill:#4d4d4d" /><path
       d="M403.901,43.394c-3.563-2.611-7.797-3.951-12.078-3.951c-2.798,0-5.611,0.576-8.262,1.75   c-15.742,7.004-34.166,11.029-53.859,11.029c-44.014,0-81.638-20.099-97.306-48.606C231.168,1.386,228.833,0,226.289,0   c-2.56,0-4.893,1.392-6.121,3.623c-5.851,10.656-14.8,20.135-25.98,27.829c-4.46,3.067-9.368,5.76-14.501,8.223   c-1.197,0.576-2.484,1.069-3.728,1.609c-3.801,1.661-7.707,3.165-11.792,4.467c-1.75,0.561-3.518,1.085-5.327,1.579   c-3.966,1.078-8.052,1.939-12.243,2.664c-1.78,0.308-3.53,0.69-5.357,0.929c-5.986,0.784-12.091,1.301-18.377,1.301   c-21.041,0-40.598-4.602-57.019-12.503c-1.557-0.749-11.83-4.236-20.667,1.736C39.021,45.616,35.899,53,36.722,60.379   l24.02,215.195c2.783,24.865,12.153,48.647,27.163,68.654c30.634,40.803,86.529,104.608,136.619,104.608   c51.931,0,107.316-64.06,137.322-104.855c14.637-19.903,23.602-43.011,26.355-67.562l23.914-214.299   C412.938,54.856,409.795,47.718,403.901,43.394z M357.747,273.001c-2.186,19.439-9.115,37.211-20.594,52.821   c-42.532,57.833-84.644,92.365-112.63,92.365c-26.385,0-69.335-35.393-112.105-92.352c-11.688-15.594-19.037-34.151-21.223-53.658   L69.092,74.103c16.866,5.768,35.155,8.769,53.771,8.769c40.512,0,78.105-14.299,103.426-38.034   c25.322,23.735,62.915,38.034,103.412,38.034c17.225,0,34.27-2.589,50.103-7.557L357.747,273.001z"
       id="path4"
       style="fill:#4d4d4d" /></g><g
     id="g8" /><g
     id="g10" /><g
     id="g12" /><g
     id="g14" /><g
     id="g16" /><g
     id="g18" /><g
     id="g20" /><g
     id="g22" /><g
     id="g24" /><g
     id="g26" /><g
     id="g28" /><g
     id="g30" /><g
     id="g32" /><g
     id="g34" /><g
     id="g36" /></svg>