<?xml version="1.0" encoding="UTF-8" standalone="no"?>
<!-- Generator: Adobe Illustrator 19.0.0, SVG Export Plug-In . SVG Version: 6.00 Build 0)  -->

<svg
   xmlns:dc="http://purl.org/dc/elements/1.1/"
   xmlns:cc="http://creativecommons.org/ns#"
   xmlns:rdf="http://www.w3.org/1999/02/22-rdf-syntax-ns#"
   xmlns:svg="http://www.w3.org/2000/svg"
   xmlns="http://www.w3.org/2000/svg"
   xmlns:sodipodi="http://sodipodi.sourceforge.net/DTD/sodipodi-0.dtd"
   xmlns:inkscape="http://www.inkscape.org/namespaces/inkscape"
   version="1.1"
   id="Capa_1"
   x="0px"
   y="0px"
   viewBox="0 0 522.162 522.162"
   style="enable-background:new 0 0 522.162 522.162;"
   xml:space="preserve"
   sodipodi:docname="globo ESTERI.svg"
   inkscape:version="0.92.1 r15371"><metadata
     id="metadata43"><rdf:RDF><cc:Work
         rdf:about=""><dc:format>image/svg+xml</dc:format><dc:type
           rdf:resource="http://purl.org/dc/dcmitype/StillImage" /><dc:title></dc:title></cc:Work></rdf:RDF></metadata><defs
     id="defs41" /><sodipodi:namedview
     pagecolor="#ffffff"
     bordercolor="#666666"
     borderopacity="1"
     objecttolerance="10"
     gridtolerance="10"
     guidetolerance="10"
     inkscape:pageopacity="0"
     inkscape:pageshadow="2"
     inkscape:window-width="1366"
     inkscape:window-height="718"
     id="namedview39"
     showgrid="false"
     inkscape:zoom="0.45196703"
     inkscape:cx="261.08099"
     inkscape:cy="261.08099"
     inkscape:window-x="0"
     inkscape:window-y="0"
     inkscape:window-maximized="1"
     inkscape:current-layer="Capa_1" /><g
     id="g6"
     style="fill:#4d4d4d"><g
       id="g4"
       style="fill:#4d4d4d"><path
         d="M233.837,380.662c102.054,0,185.038-83.006,185.038-185.038c0-102.054-82.984-185.038-185.038-185.038    S48.798,93.57,48.798,195.624C48.798,297.656,131.783,380.662,233.837,380.662z M410.864,372.651    c95.001-95.023,97.265-247.864,7.293-345.978l8.12-8.098c4.245-4.245,4.245-11.146,0-15.391c-4.245-4.245-11.146-4.245-15.413,0    l-30.782,30.803c-4.245,4.245-4.245,11.146,0,15.413c2.133,2.133,4.898,3.178,7.706,3.178c2.765,0,5.573-1.045,7.685-3.178    l7.293-7.314c81.504,89.602,79.218,228.664-7.293,315.175c-86.511,86.533-225.573,88.775-315.175,7.314l7.314-7.314    c4.245-4.267,4.245-11.146,0-15.391s-11.146-4.245-15.391,0L41.44,372.695c-4.267,4.245-4.267,11.124,0,15.391    c2.133,2.133,4.898,3.2,7.706,3.2c2.765,0,5.573-1.067,7.706-3.2l8.076-8.098c42.015,38.532,93.869,60.257,147.16,64.872v13.17    c-41.579,3.962-80.96,19.07-114.963,44.562c-3.744,2.808-5.268,7.706-3.831,12.169c1.459,4.397,5.616,7.402,10.297,7.402H364.06    c4.68,0,8.838-3.004,10.34-7.423c1.437-4.484-0.087-9.361-3.831-12.169c-34.004-25.492-73.428-40.6-114.963-44.562v-13.17    C312.271,439.896,367.587,415.907,410.864,372.651z"
         id="path2"
         style="fill:#4d4d4d" /></g></g><g
     id="g8" /><g
     id="g10" /><g
     id="g12" /><g
     id="g14" /><g
     id="g16" /><g
     id="g18" /><g
     id="g20" /><g
     id="g22" /><g
     id="g24" /><g
     id="g26" /><g
     id="g28" /><g
     id="g30" /><g
     id="g32" /><g
     id="g34" /><g
     id="g36" /></svg>