<?xml version="1.0" encoding="UTF-8" standalone="no"?>
<!-- Generator: Adobe Illustrator 19.1.0, SVG Export Plug-In . SVG Version: 6.00 Build 0)  -->

<svg
   xmlns:dc="http://purl.org/dc/elements/1.1/"
   xmlns:cc="http://creativecommons.org/ns#"
   xmlns:rdf="http://www.w3.org/1999/02/22-rdf-syntax-ns#"
   xmlns:svg="http://www.w3.org/2000/svg"
   xmlns="http://www.w3.org/2000/svg"
   xmlns:sodipodi="http://sodipodi.sourceforge.net/DTD/sodipodi-0.dtd"
   xmlns:inkscape="http://www.inkscape.org/namespaces/inkscape"
   version="1.1"
   id="Capa_1"
   x="0px"
   y="0px"
   viewBox="0 0 483.391 483.391"
   style="enable-background:new 0 0 483.391 483.391;"
   xml:space="preserve"
   inkscape:version="0.48.5 r10040"
   width="100%"
   height="100%"
   sodipodi:docname="126428.svg"><metadata
     id="metadata41"><rdf:RDF><cc:Work
         rdf:about=""><dc:format>image/svg+xml</dc:format><dc:type
           rdf:resource="http://purl.org/dc/dcmitype/StillImage" /><dc:title></dc:title></cc:Work></rdf:RDF></metadata><defs
     id="defs39" /><sodipodi:namedview
     pagecolor="#ffffff"
     bordercolor="#666666"
     borderopacity="1"
     objecttolerance="10"
     gridtolerance="10"
     guidetolerance="10"
     inkscape:pageopacity="0"
     inkscape:pageshadow="2"
     inkscape:window-width="1366"
     inkscape:window-height="718"
     id="namedview37"
     showgrid="false"
     inkscape:zoom="0.69044397"
     inkscape:cx="250.09443"
     inkscape:cy="262.69282"
     inkscape:window-x="0"
     inkscape:window-y="0"
     inkscape:window-maximized="1"
     inkscape:current-layer="Capa_1" /><g
     id="g3"
     style="fill:#4d4d4d"><path
       d="m 91.466,1.163 c -5.2,0.8 -7.3,7.1 -3.6,10.8 l 32.5,32.5 c 15.4,15.4 15.4,40.4 0,55.9 l -20,20 c -15.4,15.4 -40.4,15.4 -55.9,0 l -32.5,-32.5 c -3.7,-3.7 -10,-1.6 -10.8,3.6 -4.8,32.5 5.2,66.8 30.3,91.8 24.5,24.5 58,34.7 90,30.5 14.1,-1.9 28.2,2.9 38.2,12.9 l 242.9,242.9 c 18.5,18.5 48.4,18.4 66.9,-0.1 18.5,-18.5 18.6,-48.5 0.1,-66.9 l -242.9,-243 c -10,-10 -14.8,-24.1 -12.9,-38.2 4.2,-31.9 -6,-65.4 -30.5,-90 -25.1,-24.9 -59.4,-35 -91.8,-30.2 z m 350.1,420.9 c 5.4,5.4 5.4,14.1 0,19.5 -5.4,5.4 -14.1,5.4 -19.5,0 l -247.8,-247.8 c -5.4,-5.4 -11.19337,-21.34172 -5.79337,-26.74172 5.4,-5.4 19.89337,1.84172 25.29337,7.24172 z"
       id="path5"
       style="fill:#4d4d4d"
       inkscape:connector-curvature="0"
       sodipodi:nodetypes="csscscscccssscccccsssssss" /></g><g
     id="g7" /><g
     id="g9" /><g
     id="g11" /><g
     id="g13" /><g
     id="g15" /><g
     id="g17" /><g
     id="g19" /><g
     id="g21" /><g
     id="g23" /><g
     id="g25" /><g
     id="g27" /><g
     id="g29" /><g
     id="g31" /><g
     id="g33" /><g
     id="g35" /></svg>