<?xml version="1.0" encoding="UTF-8" standalone="no"?>
<!-- Generator: Adobe Illustrator 19.0.0, SVG Export Plug-In . SVG Version: 6.00 Build 0)  -->

<svg
   xmlns:dc="http://purl.org/dc/elements/1.1/"
   xmlns:cc="http://creativecommons.org/ns#"
   xmlns:rdf="http://www.w3.org/1999/02/22-rdf-syntax-ns#"
   xmlns:svg="http://www.w3.org/2000/svg"
   xmlns="http://www.w3.org/2000/svg"
   xmlns:sodipodi="http://sodipodi.sourceforge.net/DTD/sodipodi-0.dtd"
   xmlns:inkscape="http://www.inkscape.org/namespaces/inkscape"
   version="1.1"
   id="Capa_1"
   x="0px"
   y="0px"
   viewBox="0 0 512 512"
   style="enable-background:new 0 0 512 512;"
   xml:space="preserve"
   inkscape:version="0.48.5 r10040"
   width="100%"
   height="100%"
   sodipodi:docname="688604.svg"><metadata
     id="metadata49"><rdf:RDF><cc:Work
         rdf:about=""><dc:format>image/svg+xml</dc:format><dc:type
           rdf:resource="http://purl.org/dc/dcmitype/StillImage" /><dc:title></dc:title></cc:Work></rdf:RDF></metadata><defs
     id="defs47" /><sodipodi:namedview
     pagecolor="#ffffff"
     bordercolor="#666666"
     borderopacity="1"
     objecttolerance="10"
     gridtolerance="10"
     guidetolerance="10"
     inkscape:pageopacity="0"
     inkscape:pageshadow="2"
     inkscape:window-width="1366"
     inkscape:window-height="718"
     id="namedview45"
     showgrid="false"
     inkscape:zoom="1.1008969"
     inkscape:cx="256"
     inkscape:cy="256"
     inkscape:window-x="0"
     inkscape:window-y="0"
     inkscape:window-maximized="1"
     inkscape:current-layer="Capa_1" /><g
     id="g3026"
     style="fill:#4d4d4d"><g
       id="g3"
       style="fill:#4d4d4d"><g
         id="g5"
         style="fill:#4d4d4d"><path
           id="path7"
           d="M 376,33 C 315.341,33 276.405,75.012 256,112.849 235.595,75.011 196.659,33 136,33 59.037,33 0,95.446 0,178.268 0,199.878 4.327,219.829 12.294,239 l 114.434,0 25.854,-51.709 c 5.098,-10.166 21.738,-10.166 26.836,0 L 226,280.456 242.582,247.292 c 6.00635,-13.7994 19.01295,-15.6161 26.836,0 L 286,280.456 332.582,187.292 c 5.098,-10.166 21.738,-10.166 26.836,0 L 385.272,239 499.706,239 C 507.673,219.829 512,199.878 512,178.268 512,95.446 452.963,33 376,33 z"
           style="fill:#4d4d4d"
           inkscape:connector-curvature="0"
           sodipodi:nodetypes="scssccccccccccccss" /></g></g><g
       id="g9"
       style="fill:#4d4d4d"><g
         id="g11"
         style="fill:#4d4d4d"><path
           id="path13"
           d="m 376,269 c -5.684,0 -10.869,-3.208 -13.418,-8.291 L 346,227.545 299.418,320.709 C 296.869,325.792 291.684,329 286,329 c -5.684,0 -10.869,-3.208 -13.418,-8.291 L 256,287.545 239.418,320.709 c -5.098,10.166 -21.738,10.166 -26.836,0 L 166,222.0949 149.418,260.709 C 146.869,265.792 141.684,269 136,269 l -107.963,0 c 30.873,48.574 86.474,94.713 156.024,153.413 19.526,16.479 40.298,34.014 62.109,52.925 2.827,2.446 6.328,3.662 9.829,3.662 3.501,0 7.002,-1.216 9.829,-3.662 21.812,-18.911 42.583,-36.445 62.109,-52.925 C 397.488,363.713 453.088,317.574 483.961,269 z"
           style="fill:#4d4d4d"
           inkscape:connector-curvature="0"
           sodipodi:nodetypes="scccsccccccscccscscs" /></g></g></g><g
     id="g15" /><g
     id="g17" /><g
     id="g19" /><g
     id="g21" /><g
     id="g23" /><g
     id="g25" /><g
     id="g27" /><g
     id="g29" /><g
     id="g31" /><g
     id="g33" /><g
     id="g35" /><g
     id="g37" /><g
     id="g39" /><g
     id="g41" /><g
     id="g43" /></svg>