<?xml version="1.0" encoding="UTF-8" standalone="no"?>
<!-- Generator: Adobe Illustrator 18.1.1, SVG Export Plug-In . SVG Version: 6.00 Build 0)  -->

<svg
   xmlns:dc="http://purl.org/dc/elements/1.1/"
   xmlns:cc="http://creativecommons.org/ns#"
   xmlns:rdf="http://www.w3.org/1999/02/22-rdf-syntax-ns#"
   xmlns:svg="http://www.w3.org/2000/svg"
   xmlns="http://www.w3.org/2000/svg"
   xmlns:sodipodi="http://sodipodi.sourceforge.net/DTD/sodipodi-0.dtd"
   xmlns:inkscape="http://www.inkscape.org/namespaces/inkscape"
   version="1.1"
   id="Capa_1"
   x="0px"
   y="0px"
   viewBox="0 0 398.97 398.97"
   style="enable-background:new 0 0 398.97 398.97;"
   xml:space="preserve"
   inkscape:version="0.48.5 r10040"
   width="100%"
   height="100%"
   sodipodi:docname="70035.svg"><metadata
     id="metadata48"><rdf:RDF><cc:Work
         rdf:about=""><dc:format>image/svg+xml</dc:format><dc:type
           rdf:resource="http://purl.org/dc/dcmitype/StillImage" /><dc:title></dc:title></cc:Work></rdf:RDF></metadata><defs
     id="defs46" /><sodipodi:namedview
     pagecolor="#ffffff"
     bordercolor="#666666"
     borderopacity="1"
     objecttolerance="10"
     gridtolerance="10"
     guidetolerance="10"
     inkscape:pageopacity="0"
     inkscape:pageshadow="2"
     inkscape:window-width="1366"
     inkscape:window-height="718"
     id="namedview44"
     showgrid="false"
     inkscape:zoom="0.83654009"
     inkscape:cx="188.09653"
     inkscape:cy="208.39772"
     inkscape:window-x="0"
     inkscape:window-y="0"
     inkscape:window-maximized="1"
     inkscape:current-layer="Capa_1" /><g
     id="g3"
     style="fill:#4d4d4d"><g
       id="Layer_5_59_"
       style="fill:#4d4d4d"><g
         id="g6"
         style="fill:#4d4d4d"><g
           id="g3025"><path
             sodipodi:nodetypes="ssccscssscscs"
             inkscape:connector-curvature="0"
             style="fill:#4d4d4d"
             id="path8"
             d="m 225.092,276.586 c -7.101,4.355 -16.195,9.1448 -25.607,9.1448 -9.412,0 -18.506,-4.7888 -25.607,-9.1448 L 57.946,205.484 c 0,0 -10.464,-6.414 -10.464,8.116 0,16.5 0,66 0,66 0,0.66 0,3.973 0,5 0,37.402 68.053,77.723 152,77.723 83.947,0 152,-40.32 152,-77.723 0,-1.027 0,-4.34 0,-5 0,0 0,-52.502 0,-70.003 0,-11.663 -7.439,-5.964 -7.439,-5.964 z" /><path
             style="fill:#4d4d4d"
             id="path10"
             d="M392.289,148.927c8.908-5.463,8.908-14.403,0-19.867L215.681,40.745c-8.908-5.463-23.485-5.463-32.393,0L6.681,129.06     c-8.908,5.463-8.908,14.403,0,19.867l176.607,108.315c8.908,5.463,23.485,5.463,32.393,0" /><path
             style="fill:#4d4d4d"
             id="path12"
             d="M384.985,309.475c0-29.906,0-119.625,0-119.625s0.083-5.666-3.279-3.795c-2.697,1.501-9.308,5.186-11.637,7.212     c-2.689,2.337-2.083,7.583-2.083,7.583s0,81.469,0,108.625c0,1.542-1.325,2.278-1.957,2.65     c-6.105,3.589-10.21,10.214-10.21,17.809c0,11.414,9.252,20.667,20.667,20.667c11.414,0,20.666-9.253,20.666-20.667     c0-7.624-4.135-14.27-10.279-17.85C386.262,311.728,384.985,311.016,384.985,309.475z" /></g></g></g></g><g
     id="g14" /><g
     id="g16" /><g
     id="g18" /><g
     id="g20" /><g
     id="g22" /><g
     id="g24" /><g
     id="g26" /><g
     id="g28" /><g
     id="g30" /><g
     id="g32" /><g
     id="g34" /><g
     id="g36" /><g
     id="g38" /><g
     id="g40" /><g
     id="g42" /></svg>