<?xml version="1.0" encoding="UTF-8" standalone="no"?>
<!-- Generator: Adobe Illustrator 19.0.0, SVG Export Plug-In . SVG Version: 6.00 Build 0)  -->

<svg
   xmlns:dc="http://purl.org/dc/elements/1.1/"
   xmlns:cc="http://creativecommons.org/ns#"
   xmlns:rdf="http://www.w3.org/1999/02/22-rdf-syntax-ns#"
   xmlns:svg="http://www.w3.org/2000/svg"
   xmlns="http://www.w3.org/2000/svg"
   xmlns:sodipodi="http://sodipodi.sourceforge.net/DTD/sodipodi-0.dtd"
   xmlns:inkscape="http://www.inkscape.org/namespaces/inkscape"
   version="1.1"
   id="Layer_1"
   x="0px"
   y="0px"
   viewBox="0 0 299.995 299.995"
   style="enable-background:new 0 0 299.995 299.995;"
   xml:space="preserve"
   sodipodi:docname="lucchetto SICUREZZA.svg"
   inkscape:version="0.92.1 r15371"><metadata
     id="metadata49"><rdf:RDF><cc:Work
         rdf:about=""><dc:format>image/svg+xml</dc:format><dc:type
           rdf:resource="http://purl.org/dc/dcmitype/StillImage" /><dc:title></dc:title></cc:Work></rdf:RDF></metadata><defs
     id="defs47" /><sodipodi:namedview
     pagecolor="#ffffff"
     bordercolor="#666666"
     borderopacity="1"
     objecttolerance="10"
     gridtolerance="10"
     guidetolerance="10"
     inkscape:pageopacity="0"
     inkscape:pageshadow="2"
     inkscape:window-width="1366"
     inkscape:window-height="718"
     id="namedview45"
     showgrid="false"
     inkscape:zoom="1.616699"
     inkscape:cx="149.9975"
     inkscape:cy="149.997"
     inkscape:window-x="0"
     inkscape:window-y="0"
     inkscape:window-maximized="1"
     inkscape:current-layer="Layer_1" /><g
     id="g12"
     style="fill:#4d4d4d"><g
       id="g10"
       style="fill:#4d4d4d"><g
         id="g8"
         style="fill:#4d4d4d"><path
           d="M149.997,161.485c-8.613,0-15.598,6.982-15.598,15.598c0,5.776,3.149,10.807,7.817,13.505v17.341h15.562v-17.341     c4.668-2.697,7.817-7.729,7.817-13.505C165.595,168.467,158.611,161.485,149.997,161.485z"
           id="path2"
           style="fill:#4d4d4d" /><path
           d="M150.003,85.849c-13.111,0-23.775,10.665-23.775,23.775v25.319h47.548v-25.319     C173.775,96.516,163.111,85.849,150.003,85.849z"
           id="path4"
           style="fill:#4d4d4d" /><path
           d="M149.995,0.001C67.156,0.001,0,67.159,0,149.998c0,82.837,67.156,149.997,149.995,149.997s150-67.161,150-149.997     C299.995,67.159,232.834,0.001,149.995,0.001z M196.085,227.118h-92.173c-9.734,0-17.626-7.892-17.626-17.629v-56.919     c0-8.491,6.007-15.582,14.003-17.25v-25.697c0-27.409,22.3-49.711,49.711-49.711c27.409,0,49.709,22.3,49.709,49.711v25.697     c7.993,1.673,14,8.759,14,17.25v56.919h0.002C213.711,219.225,205.819,227.118,196.085,227.118z"
           id="path6"
           style="fill:#4d4d4d" /></g></g></g><g
     id="g14" /><g
     id="g16" /><g
     id="g18" /><g
     id="g20" /><g
     id="g22" /><g
     id="g24" /><g
     id="g26" /><g
     id="g28" /><g
     id="g30" /><g
     id="g32" /><g
     id="g34" /><g
     id="g36" /><g
     id="g38" /><g
     id="g40" /><g
     id="g42" /></svg>