<?xml version="1.0" encoding="UTF-8" standalone="no"?>
<!-- Generator: Adobe Illustrator 19.0.0, SVG Export Plug-In . SVG Version: 6.00 Build 0)  -->

<svg
   xmlns:dc="http://purl.org/dc/elements/1.1/"
   xmlns:cc="http://creativecommons.org/ns#"
   xmlns:rdf="http://www.w3.org/1999/02/22-rdf-syntax-ns#"
   xmlns:svg="http://www.w3.org/2000/svg"
   xmlns="http://www.w3.org/2000/svg"
   xmlns:sodipodi="http://sodipodi.sourceforge.net/DTD/sodipodi-0.dtd"
   xmlns:inkscape="http://www.inkscape.org/namespaces/inkscape"
   version="1.1"
   id="Capa_1"
   x="0px"
   y="0px"
   viewBox="0 0 512.001 512.001"
   style="enable-background:new 0 0 512.001 512.001;"
   xml:space="preserve"
   sodipodi:docname="antenna TELECOMUNICAZIONI.svg"
   inkscape:version="0.92.1 r15371"><metadata
     id="metadata85"><rdf:RDF><cc:Work
         rdf:about=""><dc:format>image/svg+xml</dc:format><dc:type
           rdf:resource="http://purl.org/dc/dcmitype/StillImage" /><dc:title></dc:title></cc:Work></rdf:RDF></metadata><defs
     id="defs83" /><sodipodi:namedview
     pagecolor="#ffffff"
     bordercolor="#666666"
     borderopacity="1"
     objecttolerance="10"
     gridtolerance="10"
     guidetolerance="10"
     inkscape:pageopacity="0"
     inkscape:pageshadow="2"
     inkscape:window-width="1366"
     inkscape:window-height="718"
     id="namedview81"
     showgrid="false"
     inkscape:zoom="0.46093662"
     inkscape:cx="256.00049"
     inkscape:cy="256.00049"
     inkscape:window-x="0"
     inkscape:window-y="0"
     inkscape:window-maximized="1"
     inkscape:current-layer="Capa_1" /><g
     id="g111"
     style="fill:#4d4d4d"><g
       id="g6"
       style="fill:#4d4d4d"><g
         id="g4"
         style="fill:#4d4d4d"><path
           id="path2"
           d="M49.1,1.399c-7.916-3.574-17.213-0.062-20.787,7.839C12.62,43.97,4.658,81.002,4.658,119.278    c0,36.204,7.149,71.396,21.263,104.577c3.44,8.133,12.815,11.663,20.587,8.315c7.993-3.39,11.72-12.61,8.314-20.587    c-12.441-29.286-18.746-60.351-18.746-92.306c0-33.796,7.026-66.456,20.864-97.092C60.513,14.27,57.001,4.973,49.1,1.399z"
           style="fill:#4d4d4d" /></g></g><g
       id="g12"
       style="fill:#4d4d4d"><g
         id="g10"
         style="fill:#4d4d4d"><path
           id="path8"
           d="M483.688,9.24c-3.59-7.901-12.855-11.413-20.787-7.839c-7.901,3.574-11.413,12.871-7.839,20.787    c13.837,30.636,20.864,63.295,20.864,97.092c0,31.955-6.306,63.02-18.746,92.306c-3.406,7.975,0.322,17.195,8.314,20.585    c7.772,3.348,17.147-0.182,20.587-8.314c14.114-33.182,21.263-68.374,21.263-104.577C507.343,81.003,499.381,43.971,483.688,9.24z    "
           style="fill:#4d4d4d" /></g></g><g
       id="g18"
       style="fill:#4d4d4d"><g
         id="g16"
         style="fill:#4d4d4d"><path
           id="path14"
           d="M425.423,33.063c-3.651-7.87-12.947-11.291-20.864-7.64c-7.87,3.666-11.291,13.009-7.64,20.864    c10.524,22.643,16.078,47.879,16.078,72.991c0,21.768-3.989,43.015-11.874,63.158c-3.16,8.085,0.828,17.197,8.913,20.357    c8,3.122,17.174-0.777,20.357-8.913c9.297-23.808,14.022-48.906,14.022-74.602C444.415,89.624,437.849,59.801,425.423,33.063z"
           style="fill:#4d4d4d" /></g></g><g
       id="g24"
       style="fill:#4d4d4d"><g
         id="g22"
         style="fill:#4d4d4d"><path
           id="path20"
           d="M107.441,25.423c-7.854-3.651-17.181-0.245-20.864,7.64c-12.426,26.739-18.992,56.562-18.992,86.215    c0,25.696,4.725,50.793,14.022,74.602c3.184,8.136,12.357,12.035,20.357,8.913c8.085-3.161,12.073-12.273,8.913-20.357    c-7.885-20.142-11.874-41.389-11.874-63.158c0-25.112,5.554-50.348,16.078-72.991C118.732,38.432,115.31,29.089,107.441,25.423z"
           style="fill:#4d4d4d" /></g></g><g
       id="g30"
       style="fill:#4d4d4d"><g
         id="g28"
         style="fill:#4d4d4d"><path
           id="path26"
           d="M172.699,147.627c-7.164-13.485-10.953-28.718-10.953-44.058c0-12.426,2.393-24.484,7.088-35.851    c3.315-8.023-0.49-17.213-8.499-20.526c-8.039-3.283-17.197,0.491-20.526,8.499c-6.29,15.203-9.481,31.31-9.481,47.879    c0,20.465,5.063,40.807,14.635,58.816c4.08,7.674,13.605,10.559,21.247,6.489C173.866,164.808,176.78,155.297,172.699,147.627z"
           style="fill:#4d4d4d" /></g></g><g
       id="g36"
       style="fill:#4d4d4d"><g
         id="g34"
         style="fill:#4d4d4d"><path
           id="path32"
           d="M372.191,55.691c-3.314-8.007-12.488-11.782-20.526-8.499c-8.007,3.314-11.812,12.502-8.499,20.526    c4.694,11.367,7.088,23.425,7.088,35.851c0,15.34-3.789,30.574-10.953,44.058c-4.08,7.67-1.166,17.181,6.489,21.247    c7.642,4.069,17.167,1.186,21.247-6.489c9.573-18.01,14.635-38.352,14.635-58.816C381.672,87.002,378.481,70.894,372.191,55.691z"
           style="fill:#4d4d4d" /></g></g><g
       style="fill:#4d4d4d"
       id="g42"><g
         style="fill:#4d4d4d"
         id="g40"><path
           style="fill:#4d4d4d"
           id="path38"
           d="M256,40.733c-34.655,0-62.836,28.181-62.836,62.836c0,34.655,28.181,62.836,62.836,62.836    c34.655,0,62.836-28.181,62.836-62.836C318.836,68.914,290.655,40.733,256,40.733z" /></g></g><g
       style="fill:#4d4d4d"
       id="g48"><g
         style="fill:#4d4d4d"
         id="g46"><path
           style="fill:#4d4d4d"
           id="path44"
           d="M442.851,489.266l-22.735-45.47c-8.039-16.062-24.193-26.049-42.156-26.049h-0.205l-68.579-236.465    c-15.153,10.401-33.444,16.542-53.175,16.542s-38.022-6.14-53.175-16.542l-68.579,236.466h-0.205    c-17.964,0-34.118,9.987-42.156,26.049l-22.735,45.47c-2.439,4.863-2.178,10.646,0.69,15.28c2.87,4.632,7.916,7.454,13.362,7.454    h345.596c5.446,0,10.494-2.822,13.362-7.455C445.029,499.912,445.29,494.129,442.851,489.266z M212.501,260.658h86.997    l12.541,43.246l-55.936,37.292l-56.096-37.458L212.501,260.658z M190.827,335.404l36.952,24.676l-54.681,36.455L190.827,335.404z     M197.918,417.747l58.157-38.772l58.061,38.772H197.918z M284.4,360.091l36.815-24.546l17.669,60.93L284.4,360.091z" /></g></g></g><g
     id="g50" /><g
     id="g52" /><g
     id="g54" /><g
     id="g56" /><g
     id="g58" /><g
     id="g60" /><g
     id="g62" /><g
     id="g64" /><g
     id="g66" /><g
     id="g68" /><g
     id="g70" /><g
     id="g72" /><g
     id="g74" /><g
     id="g76" /><g
     id="g78" /></svg>