<?xml version="1.0" encoding="UTF-8" standalone="no"?>
<!-- Generator: Adobe Illustrator 16.0.0, SVG Export Plug-In . SVG Version: 6.00 Build 0)  -->

<svg
   xmlns:dc="http://purl.org/dc/elements/1.1/"
   xmlns:cc="http://creativecommons.org/ns#"
   xmlns:rdf="http://www.w3.org/1999/02/22-rdf-syntax-ns#"
   xmlns:svg="http://www.w3.org/2000/svg"
   xmlns="http://www.w3.org/2000/svg"
   xmlns:sodipodi="http://sodipodi.sourceforge.net/DTD/sodipodi-0.dtd"
   xmlns:inkscape="http://www.inkscape.org/namespaces/inkscape"
   version="1.1"
   id="Capa_1"
   x="0px"
   y="0px"
   width="76.334px"
   height="76.334px"
   viewBox="0 0 76.334 76.334"
   style="enable-background:new 0 0 76.334 76.334;"
   xml:space="preserve"
   inkscape:version="0.48.5 r10040"
   sodipodi:docname="15923.svg"><metadata
     id="metadata3936"><rdf:RDF><cc:Work
         rdf:about=""><dc:format>image/svg+xml</dc:format><dc:type
           rdf:resource="http://purl.org/dc/dcmitype/StillImage" /><dc:title></dc:title></cc:Work></rdf:RDF></metadata><defs
     id="defs3934" /><sodipodi:namedview
     pagecolor="#ffffff"
     bordercolor="#666666"
     borderopacity="1"
     objecttolerance="10"
     gridtolerance="10"
     guidetolerance="10"
     inkscape:pageopacity="0"
     inkscape:pageshadow="2"
     inkscape:window-width="1366"
     inkscape:window-height="718"
     id="namedview3932"
     showgrid="false"
     inkscape:object-paths="true"
     inkscape:zoom="6.8611833"
     inkscape:cx="38.167"
     inkscape:cy="32.674608"
     inkscape:window-x="0"
     inkscape:window-y="0"
     inkscape:window-maximized="1"
     inkscape:current-layer="Capa_1" /><g
     id="g3898"
     style="fill:#4d4d4d"
     transform="matrix(1,0,0,1.0570265,0,-2.0307821)"><path
       d="m 4.1349695,21.467 2.8232423,-0.137884 0,14.449884 L 3.989222,35.641116 C 2.6718084,35.579933 1.4375565,34.85475 1.4574745,33.531884 L 1.603222,23.852 c 0.019752,-1.311867 1.2145015,-2.320667 2.5317475,-2.385 z m 67.3353235,0.275769 -2.825242,0 0,13.898347 2.533748,0.137884 c 1.314826,0.07155 3.114736,-0.786231 3.114737,-2.109231 l 0,-10.369307 c 0,-1.312 -1.503243,-1.557693 -2.823243,-1.557693 z M 66.792,16.698 l 0,42.937 c 0,2.638 -2.133,4.771 -4.771,4.771 l 0,4.771 c 0,2.639 -2.133,4.771 -4.771,4.771 l -4.772,0 c -2.637,0 -4.771,-2.137 -4.771,-4.771 l 0,-4.771 -19.081,0 0,4.771 c 0,2.639 -2.134,4.771 -4.771,4.771 l -4.769,0 c -2.638,0 -4.771,-2.137 -4.771,-4.771 l 0,-4.771 c -2.637,0 -4.771,-2.137 -4.771,-4.771 l 0,-42.937 C 9.542,8.796 15.954,2.386 23.855,2.386 l 28.625,0 c 7.902,0 14.312,6.408 14.312,14.312 z m -38.166,-4.77 19.083,0 0,-4.771 -19.083,0 z m -4.771,42.938 c 0,-2.641 -2.134,-4.771 -4.769,-4.771 -2.637,0 -4.771,2.133 -4.771,4.771 0,2.635 2.134,4.771 4.771,4.771 2.634,-10e-4 4.769,-2.138 4.769,-4.771 z m 38.166,0 c 0,-2.641 -2.133,-4.771 -4.771,-4.771 -2.638,0 -4.771,2.133 -4.771,4.771 0,2.635 2.136,4.771 4.771,4.771 2.639,-10e-4 4.771,-2.138 4.771,-4.771 z m 0,-38.168 -47.708,0 0,28.625 47.562253,-0.137884 z"
       id="path3900"
       style="fill:#4d4d4d"
       inkscape:connector-curvature="0"
       sodipodi:nodetypes="sccsssssccsssssscssssccsssscscssscccccssscsssscsccccc" /></g><g
     id="g3902" /><g
     id="g3904" /><g
     id="g3906" /><g
     id="g3908" /><g
     id="g3910" /><g
     id="g3912" /><g
     id="g3914" /><g
     id="g3916" /><g
     id="g3918" /><g
     id="g3920" /><g
     id="g3922" /><g
     id="g3924" /><g
     id="g3926" /><g
     id="g3928" /><g
     id="g3930" /></svg>