<?xml version="1.0" encoding="UTF-8" standalone="no"?>
<!-- Generator: Adobe Illustrator 18.0.0, SVG Export Plug-In . SVG Version: 6.00 Build 0)  -->

<svg
   xmlns:dc="http://purl.org/dc/elements/1.1/"
   xmlns:cc="http://creativecommons.org/ns#"
   xmlns:rdf="http://www.w3.org/1999/02/22-rdf-syntax-ns#"
   xmlns:svg="http://www.w3.org/2000/svg"
   xmlns="http://www.w3.org/2000/svg"
   xmlns:sodipodi="http://sodipodi.sourceforge.net/DTD/sodipodi-0.dtd"
   xmlns:inkscape="http://www.inkscape.org/namespaces/inkscape"
   version="1.1"
   id="Capa_1"
   x="0px"
   y="0px"
   viewBox="0 0 297 297"
   style="enable-background:new 0 0 297 297;"
   xml:space="preserve"
   sodipodi:docname="valigia TURISMO.svg"
   inkscape:version="0.92.1 r15371"><metadata
     id="metadata51"><rdf:RDF><cc:Work
         rdf:about=""><dc:format>image/svg+xml</dc:format><dc:type
           rdf:resource="http://purl.org/dc/dcmitype/StillImage" /><dc:title></dc:title></cc:Work></rdf:RDF></metadata><defs
     id="defs49" /><sodipodi:namedview
     pagecolor="#ffffff"
     bordercolor="#666666"
     borderopacity="1"
     objecttolerance="10"
     gridtolerance="10"
     guidetolerance="10"
     inkscape:pageopacity="0"
     inkscape:pageshadow="2"
     inkscape:window-width="1366"
     inkscape:window-height="718"
     id="namedview47"
     showgrid="false"
     inkscape:zoom="1.9014761"
     inkscape:cx="148.5"
     inkscape:cy="148.5005"
     inkscape:window-x="0"
     inkscape:window-y="0"
     inkscape:window-maximized="1"
     inkscape:current-layer="Capa_1" /><g
     id="g14"
     style="fill:#4d4d4d"><path
       d="M250.793,276.032h36.289c5.468,0,9.918-4.45,9.918-9.918v-34.37C272.808,233.203,253.246,252.117,250.793,276.032z"
       id="path2"
       style="fill:#4d4d4d" /><path
       d="M0,140.426v76.613c32.29,1.498,58.403,26.977,60.928,58.993h175.143c2.526-32.015,28.639-57.495,60.928-58.993v-76.613   c-32.29-1.498-58.403-26.978-60.928-58.993H60.928C58.403,113.448,32.29,138.928,0,140.426z M92.432,227.208   c-10.322,0-18.689-8.368-18.689-18.689s8.367-18.689,18.689-18.689s18.689,8.367,18.689,18.689S102.754,227.208,92.432,227.208z    M204.568,115.072c10.322,0,18.689,8.367,18.689,18.689c0,10.322-8.367,18.689-18.689,18.689s-18.689-8.367-18.689-18.689   C185.879,123.44,194.246,115.072,204.568,115.072z M186.1,158.221l25.995,23.168l-17.75,19.9l-25.995-23.168L186.1,158.221z    M120.525,135.337l-41.724,25.417l-13.876-22.777l41.724-25.417L120.525,135.337z"
       id="path4"
       style="fill:#4d4d4d" /><path
       d="M250.793,81.433c2.454,23.915,22.014,42.829,46.207,44.288v-34.37c0-5.468-4.45-9.918-9.918-9.918H250.793z"
       id="path6"
       style="fill:#4d4d4d" /><path
       d="M9.917,81.433C4.449,81.433,0,85.883,0,91.351v34.37c24.193-1.459,43.754-20.373,46.207-44.288H9.917z"
       id="path8"
       style="fill:#4d4d4d" /><path
       d="M107.624,66.945V51.279c0-5.302,4.313-9.615,9.615-9.615h62.522c5.303,0,9.616,4.313,9.616,9.615v15.666h20.697V51.279   c0-16.714-13.598-30.312-30.313-30.312h-62.522c-16.714,0-30.312,13.597-30.312,30.312v15.666H107.624z"
       id="path10"
       style="fill:#4d4d4d" /><path
       d="M9.917,276.032h36.29C43.754,252.117,24.192,233.203,0,231.744v34.37C0,271.583,4.449,276.032,9.917,276.032z"
       id="path12"
       style="fill:#4d4d4d" /></g><g
     id="g16" /><g
     id="g18" /><g
     id="g20" /><g
     id="g22" /><g
     id="g24" /><g
     id="g26" /><g
     id="g28" /><g
     id="g30" /><g
     id="g32" /><g
     id="g34" /><g
     id="g36" /><g
     id="g38" /><g
     id="g40" /><g
     id="g42" /><g
     id="g44" /></svg>